<?xml version="1.0" encoding="utf-8"?>
<!-- Generator: Adobe Illustrator 23.0.3, SVG Export Plug-In . SVG Version: 6.00 Build 0)  -->
<svg version="1.1" id="Capa_1" xmlns="http://www.w3.org/2000/svg" xmlns:xlink="http://www.w3.org/1999/xlink" x="0px" y="0px"
	 viewBox="0 0 512 512" style="enable-background:new 0 0 512 512;" xml:space="preserve">
<style type="text/css">
	.st0{fill:#FFFFFF;}
</style>
<path class="st0" d="M499.5,463h-12.6v-35.5c0-4.1-3.4-7.5-7.5-7.5s-7.5,3.4-7.5,7.5V463h-71.2V256.8h71.2v136
	c0,4.1,3.4,7.5,7.5,7.5s7.5-3.4,7.5-7.5V254.3c0-6.9-5.6-12.5-12.5-12.5h-76.2c-6.9,0-12.5,5.6-12.5,12.5V463h-19.1V303.3
	c0-6.9-5.6-12.5-12.5-12.5H278c-6.9,0-12.5,5.6-12.5,12.5V463h-19.1V173.5c0-6.9-5.6-12.5-12.5-12.5h-76.2
	c-6.9,0-12.5,5.6-12.5,12.5v64.8c0,4.1,3.4,7.5,7.5,7.5s7.5-3.4,7.5-7.5V176h71.2v287h-71.2V273.2c0-4.1-3.4-7.5-7.5-7.5
	s-7.5,3.4-7.5,7.5V463h-19.1v-94.5c0-6.9-5.6-12.5-12.5-12.5H37.6c-6.9,0-12.5,5.6-12.5,12.5V463H12.5C5.6,463,0,468.6,0,475.5v23.9
	c0,6.9,5.6,12.5,12.5,12.5h487c6.9,0,12.5-5.6,12.5-12.5v-23.9C512,468.6,506.4,463,499.5,463L499.5,463z M280.5,305.8h71.2V463
	h-71.2V305.8z M40.1,371h71.2v92H40.1V371z M497,496.9H15V478h17.6h0h86.2h0h34.1h0H239h0H273h0h86.2h0h34.1h0h86.2h0H497L497,496.9
	L497,496.9z"/>
<path class="st0" d="M151,85.9l-4.3,25c-1.2,7,1.6,13.9,7.3,18c3.2,2.3,7,3.5,10.8,3.5c2.9,0,5.9-0.7,8.6-2.1l22.4-11.8l22.4,11.8
	c6.3,3.3,13.7,2.8,19.4-1.4s8.5-11.1,7.3-18l-4.3-25l18.2-17.7c5.1-4.9,6.9-12.2,4.7-18.9c-2.2-6.7-7.9-11.5-14.9-12.5l-25.1-3.6
	l-11.2-22.7c-3.1-6.3-9.5-10.3-16.5-10.3c-7.1,0-13.4,3.9-16.5,10.3l-11.2,22.7L143,36.8c-7,1-12.7,5.8-14.9,12.5
	c-2.2,6.7-0.4,14,4.7,18.9L151,85.9z M142.4,54c0.2-0.6,0.9-2.1,2.8-2.3l26.2-3.8c4.2-0.6,7.8-3.2,9.6-7L192.8,17
	c0.9-1.7,2.4-1.9,3.1-1.9s2.2,0.2,3.1,1.9l11.7,23.8c1.9,3.8,5.5,6.4,9.6,7l26.2,3.8c1.9,0.3,2.6,1.7,2.8,2.3
	c0.2,0.6,0.5,2.2-0.9,3.5l-19,18.5c-3,2.9-4.4,7.2-3.7,11.3l4.5,26.1c0.3,1.9-0.9,3-1.4,3.4c-0.5,0.4-1.9,1.2-3.6,0.3l-23.5-12.3
	c-3.7-2-8.2-2-11.9,0l-23.5,12.3c-1.7,0.9-3.1,0.1-3.6-0.3c-0.5-0.4-1.7-1.5-1.4-3.4l4.5-26.1c0.7-4.1-0.7-8.4-3.7-11.3l-19-18.5
	C141.9,56.2,142.2,54.6,142.4,54L142.4,54z"/>
</svg>
