<?xml version="1.0" encoding="utf-8"?>
<!-- Generator: Adobe Illustrator 23.0.3, SVG Export Plug-In . SVG Version: 6.00 Build 0)  -->
<svg version="1.1" id="Capa_1" xmlns="http://www.w3.org/2000/svg" xmlns:xlink="http://www.w3.org/1999/xlink" x="0px" y="0px"
	 viewBox="0 0 512 512" style="enable-background:new 0 0 512 512;" xml:space="preserve">
<style type="text/css">
	.st0{fill:#FFFFFF;}
</style>
<g>
	<path class="st0" d="M484.4,40.4H178.2c-4.2,0-7.5,3.4-7.5,7.5s3.4,7.5,7.5,7.5h306.3c6.9,0,12.5,5.6,12.5,12.5V387
		c0,6.9-5.6,12.5-12.5,12.5h-32.7c14.7-12.1,24.1-30.5,24.1-51c0-3.3-0.2-6.5-0.7-9.6V115.4c0-4.2-3.4-7.5-7.5-7.5
		c-12.8,0-23.2-10.4-23.2-23.2c0-4.2-3.4-7.5-7.5-7.5H75.1c-4.2,0-7.5,3.4-7.5,7.5c0,12.8-10.4,23.2-23.2,23.2
		c-4.2,0-7.5,3.4-7.5,7.5v224c0,4.2,3.4,7.5,7.5,7.5c12.8,0,23.2,10.4,23.2,23.1c0,4.2,3.4,7.5,7.5,7.5h167.3c4.2,0,7.5-3.4,7.5-7.5
		s-3.4-7.5-7.5-7.5H81.8c-3-15-14.9-26.9-29.9-29.9V122.2c15-3,26.9-14.9,29.9-29.9h348.3c3,15,14.9,26.9,29.9,29.9v183.6
		c-12.1-14.2-30.1-23.3-50.3-23.3c-36.4,0-66,29.6-66,66c0,4.8,0.5,9.5,1.5,14.1h-72.9c-4.2,0-7.5,3.4-7.5,7.5s3.4,7.5,7.5,7.5h78.1
		c4.2,8.5,10.1,15.9,17.3,21.9H27.6c-6.9,0-12.5-5.6-12.5-12.5V67.9c0-6.9,5.6-12.5,12.5-12.5h120.6c4.2,0,7.5-3.4,7.5-7.5
		s-3.4-7.5-7.5-7.5H27.6C12.4,40.4,0,52.7,0,67.9V387c0,15.2,12.4,27.6,27.6,27.6h342.3v49.6c-0.1,5,5.5,9.2,10.7,6.8l29.2-13.9
		l29.2,13.9c4.2,2.3,10.9-1.1,10.7-6.8v-49.6h34.6c15.2,0,27.6-12.4,27.6-27.6V67.9C512,52.7,499.6,40.4,484.4,40.4L484.4,40.4z
		 M358.8,348.5c0-28.1,22.9-51,51-51s51,22.9,51,51s-22.9,51-51,51C381.7,399.5,358.8,376.7,358.8,348.5z M413,441.9
		c-2-1-4.4-1-6.4,0l-21.7,10.3v-42.6c7.7,3.2,16.1,4.9,25,4.9s17.3-1.8,25-4.9v42.6L413,441.9z"/>
	<path class="st0" d="M319.4,159c4.2,0,7.5-3.4,7.5-7.5s-3.4-7.5-7.5-7.5H192.6c-4.2,0-7.5,3.4-7.5,7.5s3.4,7.5,7.5,7.5H319.4z"/>
	<path class="st0" d="M89.3,202.1c0,4.2,3.4,7.5,7.5,7.5h318.3c4.2,0,7.5-3.4,7.5-7.5s-3.4-7.5-7.5-7.5H96.9
		C92.7,194.6,89.3,198,89.3,202.1L89.3,202.1z"/>
	<path class="st0" d="M96.9,260.3h318.3c4.2,0,7.5-3.4,7.5-7.5s-3.4-7.5-7.5-7.5H96.9c-4.2,0-7.5,3.4-7.5,7.5
		C89.3,256.9,92.7,260.3,96.9,260.3L96.9,260.3z"/>
	<path class="st0" d="M96.9,310.9h145.5c4.2,0,7.5-3.4,7.5-7.5s-3.4-7.5-7.5-7.5H96.9c-4.2,0-7.5,3.4-7.5,7.5S92.7,310.9,96.9,310.9
		z"/>
	<path class="st0" d="M409.8,385.3c20.2,0,36.7-16.5,36.7-36.7s-16.5-36.7-36.7-36.7s-36.7,16.5-36.7,36.7S389.6,385.3,409.8,385.3z
		 M409.8,326.9c12,0,21.7,9.7,21.7,21.7s-9.7,21.7-21.7,21.7s-21.7-9.7-21.7-21.7S397.9,326.9,409.8,326.9z"/>
</g>
</svg>
