<?xml version="1.0" encoding="utf-8"?>
<!-- Generator: Adobe Illustrator 23.0.3, SVG Export Plug-In . SVG Version: 6.00 Build 0)  -->
<svg version="1.1" id="Layer_1" xmlns="http://www.w3.org/2000/svg" xmlns:xlink="http://www.w3.org/1999/xlink" x="0px" y="0px"
	 viewBox="0 0 512 512" style="enable-background:new 0 0 512 512;" xml:space="preserve">
<style type="text/css">
	.st0{fill:#FFFFFF;}
</style>
<path class="st0" d="M507.1,142.2L345.2,80.5c-3.9-1.5-8.3,0.5-9.8,4.4c-1.5,3.9,0.5,8.3,4.4,9.8l143.3,54.6l-99.2,37.8l-124.7-56.5
	c-3.8-1.7-8.3,0-10.1,3.8c-1.7,3.8,0,8.3,3.8,10.1l111,50.3L256,235.9L28.9,149.3L256,62.7l56,21.3c3.9,1.5,8.3-0.5,9.8-4.4
	c1.5-3.9-0.5-8.3-4.4-9.8l-58.7-22.4c-1.7-0.7-3.7-0.7-5.4,0L4.9,142.2c-2.9,1.1-4.9,4-4.9,7.1V184c0,3.2,1.9,6,4.9,7.1l77.6,29.6
	v26.4c0,4.2,3.4,7.6,7.6,7.6c4.2,0,7.6-3.4,7.6-7.6v-20.6l155.6,59.3c0.9,0.3,1.8,0.5,2.7,0.5s1.8-0.2,2.7-0.5L376,241.1v120.3
	c-36.8,19.3-78.1,29.7-120,29.7c-57.2,0-113.2-19.3-158.3-54.3v-59.3c0-4.2-3.4-7.6-7.6-7.6c-4.2,0-7.6,3.4-7.6,7.6v63
	c0,2.3,1,4.5,2.8,5.9c48.2,38.7,108.9,59.9,170.7,59.9c41.7,0,82.8-9.7,120-27.9v30.8c-12.3,3.3-21.3,14.6-21.3,27.9
	c0,15.9,13,28.9,28.9,28.9c15.9,0,28.9-13,28.9-28.9c0-13.3-9-24.5-21.3-27.9v-38.8c12.4-7.1,24.3-15.1,35.5-24.1
	c1.8-1.4,2.9-3.6,2.9-5.9V220.7l77.6-29.6c2.9-1.1,4.9-3.9,4.9-7.1v-34.7C512,146.2,510.1,143.3,507.1,142.2z M397.3,437.2
	c0,7.5-6.1,13.7-13.7,13.7c-7.5,0-13.7-6.1-13.7-13.7c0-7.5,6.1-13.7,13.7-13.7C391.2,423.5,397.3,429.6,397.3,437.2z M15.2,160.3
	l233.2,88.9v18.4L15.2,178.8V160.3z M263.6,267.7v-18.4L376,206.4v18.4L263.6,267.7z M414.3,336.8c-7.4,5.8-15.1,11.1-23.1,16V235.3
	l23.1-8.8V336.8z M391.2,219v-18.4l105.6-40.2v18.4L391.2,219z"/>
<text transform="matrix(1 0 0 1 960 540)" class="st0" style="font-family:'MyriadPro-Regular'; font-size:12px;">testimonial-slider__author</text>
</svg>
